<?xml version="1.0" standalone="no"?>
<!DOCTYPE svg PUBLIC "-//W3C//DTD SVG 20010904//EN"
 "http://www.w3.org/TR/2001/REC-SVG-20010904/DTD/svg10.dtd">
<svg version="1.0" xmlns="http://www.w3.org/2000/svg"
 width="130.000000pt" height="130.000000pt" viewBox="0 0 130.000000 130.000000"
 preserveAspectRatio="xMidYMid meet">
<metadata>
Created by potrace 1.14, written by Peter Selinger 2001-2017
</metadata>
<g transform="translate(0.000000,130.000000) scale(0.100000,-0.100000)"
fill="#000000" stroke="none">
<path d="M293 1285 c-43 -18 -95 -74 -121 -127 -20 -41 -21 -59 -21 -495 -1
-429 0 -456 19 -506 25 -67 64 -111 121 -136 77 -35 155 -22 215 37 54 53 77
112 82 215 2 48 7 87 11 88 3 1 38 2 77 4 78 3 115 18 155 62 48 51 72 117 71
194 -1 41 -32 122 -59 151 -15 17 -13 18 47 18 121 0 188 41 235 143 52 111
13 262 -85 330 l-45 32 -335 2 c-267 2 -341 -1 -367 -12z m-79 -399 c8 -18 31
-46 52 -62 l37 -29 221 -5 c140 -3 228 -9 241 -17 93 -54 118 -200 49 -290
-44 -58 -59 -61 -295 -65 l-216 -3 -37 -29 c-21 -16 -44 -44 -52 -62 -8 -19
-15 -34 -17 -34 -1 0 -2 142 -2 315 0 173 1 315 2 315 2 0 9 -15 17 -34z"/>
</g>
</svg>
