<svg width="62" height="68" viewBox="0 0 62 68" fill="none" xmlns="http://www.w3.org/2000/svg">
<path d="M48.4259 0C47.118 0 15.0091 0 13.5435 0C6.07993 0 0.0144096 5.96803 0.0144096 13.3338C0.0144096 57.8388 -0.0532356 54.7993 0.104603 55.3984C0.487926 62.4091 6.41816 68 13.6337 68C21.0972 68 27.1852 62.032 27.1852 54.6662V48.8757H33.9272C45.7651 48.8757 51.1993 34.1664 41.9996 26.7119C44.0064 26.7119 48.6739 26.7563 49.1925 26.6232C56.3178 26.246 62 20.4111 62 13.3116C61.9549 5.96803 55.8894 0 48.4259 0ZM43.7583 36.3628C43.7583 36.385 43.7583 36.385 43.7583 36.3628C43.7583 36.385 43.7583 36.385 43.7583 36.3628C43.7583 41.7318 39.3614 46.0581 33.9047 46.0581C27.7039 46.0581 15.6179 45.9915 13.2954 46.0581C3.55451 46.3243 2.85551 54.3334 2.85551 54.3334V18.4144C2.85551 18.4144 3.55451 26.4013 13.2954 26.6897C15.6856 26.7563 21.007 26.6897 33.9047 26.6897C39.3614 26.6897 43.7583 31.016 43.7583 36.3628Z" fill="#0AD080"/>
</svg>
