<svg width="50" height="54" viewBox="0 0 50 54" fill="none" xmlns="http://www.w3.org/2000/svg">
<path d="M38.4558 0C37.4173 0 11.919 0 10.7551 0C4.82818 0 0.0114429 4.73931 0.0114429 10.5886C0.0114429 45.9308 -0.0422753 43.5171 0.0830673 43.9928C0.387471 49.5602 5.09677 54 10.8267 54C16.7536 54 21.5883 49.2607 21.5883 43.4114V38.813H26.9422C36.3429 38.813 40.6583 27.1321 33.3526 21.2124C34.9462 21.2124 38.6528 21.2476 39.0646 21.1419C44.723 20.8424 49.2353 16.2088 49.2353 10.571C49.1995 4.73931 44.3827 0 38.4558 0ZM34.7493 28.8763C34.7493 28.894 34.7493 28.894 34.7493 28.8763C34.7493 28.894 34.7493 28.894 34.7493 28.8763C34.7493 33.14 31.2576 36.5755 26.9243 36.5755C22.0001 36.5755 12.4025 36.5227 10.5581 36.5755C2.8227 36.7869 2.26761 43.1471 2.26761 43.1471V14.6232C2.26761 14.6232 2.8227 20.9657 10.5581 21.1948C12.4562 21.2476 16.682 21.1948 26.9243 21.1948C31.2576 21.1948 34.7493 24.6303 34.7493 28.8763Z" fill="#0AD080"/>
</svg>
